{"title":"Aurora Viper - Anal.flv","uid":7885222,"size":172052993,"categoryP":"porn","categoryS":"movie_clips","magnet":"?xt=urn:btih:d24f07753c7fce20c1588ddd1fbcd65dd2b050b3&amp;dn=Aurora+Viper+-+Anal.flv&amp;tr=udp%3A%2F%2Ftracker.openbittorrent.com%3A80&amp;tr=udp%3A%2F%2Fopen.demonii.com%3A1337&amp;tr=udp%3A%2F%2Ftracker.coppersurfer.tk%3A6969&amp;tr=udp%3A%2F%2Fexodus.desync.com%3A6969","seeders":0,"leechers":4,"uploader":"nimish1","files":1,"time":1354600624,"description":"General\nComplete name                            : Aurora Viper - Anal.flv\nFormat                                   : Flash Video\nFile size                                : 164 MiB\nDuration                                 : 21mn 58s\nOverall bit rate                         : 1 044 Kbps\nTagging application                      : Yet Another Metadata Injector for FLV - Version 1.8\n\nVideo\nFormat                                   : AVC\nFormat/Info                              : Advanced Video Codec\nFormat profile                           : &lt;a class=&quot;__cf_email__&quot; href=&quot;/cdn-cgi/l/email-protection&quot; data-cfemail=&quot;1d507c74735d512e332d&quot;&gt;[email&amp;#160;protected]&lt;/a&gt;&lt;script cf-hash='f9e31' type=&quot;text/javascript&quot;&gt;\n/* &lt;![CDATA[ */!function(){try{var t=&quot;currentScript&quot;in document?document.currentScript:function(){for(var t=document.getElementsByTagName(&quot;script&quot;),e=t.length;e--;)if(t[e].getAttribute(&quot;cf-hash&quot;))return t[e]}();if(t&amp;&amp;t.previousSibling){var e,r,n,i,c=t.previousSibling,a=c.getAttribute(&quot;data-cfemail&quot;);if(a){for(e=&quot;&quot;,r=parseInt(a.substr(0,2),16),n=2;a.length-n;n+=2)i=parseInt(a.substr(n,2),16)^r,e+=String.fromCharCode(i);e=document.createTextNode(e),c.parentNode.replaceChild(e,c)}}}catch(u){}}();/* ]]&gt; */&lt;/script&gt;\nFormat settings, CABAC                   : Yes\nFormat settings, ReFrames                : 2 frames\nCodec ID                                 : 7\nDuration                                 : 21mn 57s\nBit rate                                 : 950 Kbps\nWidth                                    : 854 pixels\nHeight                                   : 480 pixels\nDisplay aspect ratio                     : 16:9\nFrame rate mode                          : Constant\nFrame rate                               : 24.000 fps\nColor space                              : YUV\nChroma subsampling                       : 4:2:0\nBit depth                                : 8 bits\nScan type                                : Progressive\nBits/(Pixel*Frame)                       : 0.097\nStream size                              : 153 MiB (93%)\n\nAudio\nFormat                                   : MPEG Audio\nFormat version                           : Version 1\nFormat profile                           : Layer 3\nMode                                     : Joint stereo\nMode extension                           : MS Stereo\nCodec ID                                 : 2\nCodec ID/Hint                            : MP3\nDuration                                 : 21mn 58s\nBit rate mode                            : Constant\nBit rate                                 : 64.0 Kbps\nChannel(s)                               : 2 channels\nSampling rate                            : 44.1 KHz\nCompression mode                         : Lossy\nStream size                              : 10.6 MiB (6%)\n\n\n\n\n &lt;a href=&quot;\nhttp://img827.imageshack.us/img827/4417/auroraviperanalflvthumb.jpg&quot; rel=&quot;nofollow&quot; target=&quot;_NEW&quot;&gt;\nhttp://img827.imageshack.us/img827/4417/auroraviperanalflvthumb.jpg&lt;/a&gt;\n","torrent":{"xt":"urn:btih:d24f07753c7fce20c1588ddd1fbcd65dd2b050b3","amp;dn":"Aurora+Viper+-+Anal.flv","amp;tr":["udp%3A%2F%2Ftracker.openbittorrent.com%3A80","udp%3A%2F%2Fopen.demonii.com%3A1337","udp%3A%2F%2Ftracker.coppersurfer.tk%3A6969","udp%3A%2F%2Fexodus.desync.com%3A6969"],"infoHash":"d24f07753c7fce20c1588ddd1fbcd65dd2b050b3","infoHashBuffer":{"type":"Buffer","data":[210,79,7,117,60,127,206,32,193,88,141,221,31,188,214,93,210,176,80,179]},"announce":[],"urlList":[]}}